<mxfile host="65bd71144e" pages="1">
    <diagram id="-CbPzPiSf9zcJNy21FNy" name="Page-1">
        <mxGraphModel dx="820" dy="413" grid="1" gridSize="10" guides="1" tooltips="1" connect="1" arrows="1" fold="1" page="1" pageScale="1" pageWidth="1169" pageHeight="827" background="none" math="0" shadow="0">
            <root>
                <mxCell id="0"/>
                <mxCell id="1" parent="0"/>
                <mxCell id="22" style="edgeStyle=orthogonalEdgeStyle;rounded=0;orthogonalLoop=1;jettySize=auto;html=1;exitX=0.5;exitY=1;exitDx=0;exitDy=0;entryX=0.5;entryY=0;entryDx=0;entryDy=0;fontFamily=Times New Roman;fontSize=16;" parent="1" source="5" target="21" edge="1">
                    <mxGeometry relative="1" as="geometry"/>
                </mxCell>
                <mxCell id="5" value="&lt;font style=&quot;font-size: 16px;&quot;&gt;开始&lt;/font&gt;" style="rounded=1;whiteSpace=wrap;html=1;fontFamily=Times New Roman;fontSize=16;" parent="1" vertex="1">
                    <mxGeometry x="390" y="70" width="120" height="60" as="geometry"/>
                </mxCell>
                <mxCell id="12" style="edgeStyle=orthogonalEdgeStyle;rounded=0;orthogonalLoop=1;jettySize=auto;html=1;exitX=0.75;exitY=1;exitDx=0;exitDy=0;fontFamily=Times New Roman;entryX=0.5;entryY=0;entryDx=0;entryDy=0;fontSize=16;" parent="1" source="6" target="20" edge="1">
                    <mxGeometry relative="1" as="geometry">
                        <mxPoint x="540" y="367" as="targetPoint"/>
                    </mxGeometry>
                </mxCell>
                <mxCell id="16" value="&lt;font style=&quot;font-size: 16px;&quot;&gt;偶数&lt;/font&gt;" style="text;html=1;resizable=0;points=[];align=center;verticalAlign=middle;labelBackgroundColor=#ffffff;fontFamily=Times New Roman;fontSize=16;" parent="12" vertex="1" connectable="0">
                    <mxGeometry x="0.5092" y="-1" relative="1" as="geometry">
                        <mxPoint as="offset"/>
                    </mxGeometry>
                </mxCell>
                <mxCell id="14" style="edgeStyle=orthogonalEdgeStyle;rounded=0;orthogonalLoop=1;jettySize=auto;html=1;exitX=0.25;exitY=1;exitDx=0;exitDy=0;fontFamily=Times New Roman;entryX=0.5;entryY=0;entryDx=0;entryDy=0;fontSize=16;" parent="1" source="6" target="19" edge="1">
                    <mxGeometry relative="1" as="geometry">
                        <mxPoint x="370" y="367" as="targetPoint"/>
                    </mxGeometry>
                </mxCell>
                <mxCell id="15" value="&lt;font style=&quot;font-size: 16px;&quot;&gt;奇数&lt;/font&gt;" style="text;html=1;resizable=0;points=[];align=center;verticalAlign=middle;labelBackgroundColor=#ffffff;fontFamily=Times New Roman;fontSize=16;" parent="14" vertex="1" connectable="0">
                    <mxGeometry x="0.4288" y="1" relative="1" as="geometry">
                        <mxPoint as="offset"/>
                    </mxGeometry>
                </mxCell>
                <mxCell id="6" value="&lt;font style=&quot;font-size: 16px;&quot;&gt;奇偶性判断&lt;/font&gt;" style="rounded=1;whiteSpace=wrap;html=1;fontFamily=Times New Roman;horizontal=1;fontSize=16;" parent="1" vertex="1">
                    <mxGeometry x="390" y="257" width="120" height="60" as="geometry"/>
                </mxCell>
                <mxCell id="25" style="edgeStyle=orthogonalEdgeStyle;rounded=0;orthogonalLoop=1;jettySize=auto;html=1;exitX=0.5;exitY=1;exitDx=0;exitDy=0;fontSize=16;entryX=0.5;entryY=0;entryDx=0;entryDy=0;" parent="1" source="19" target="36" edge="1">
                    <mxGeometry relative="1" as="geometry">
                        <mxPoint x="400" y="500" as="targetPoint"/>
                    </mxGeometry>
                </mxCell>
                <mxCell id="19" value="&lt;font style=&quot;font-size: 16px;&quot;&gt;oddnum+1&lt;/font&gt;" style="rounded=1;whiteSpace=wrap;html=1;fontFamily=Times New Roman;fontSize=16;" parent="1" vertex="1">
                    <mxGeometry x="320" y="387" width="120" height="60" as="geometry"/>
                </mxCell>
                <mxCell id="35" style="edgeStyle=orthogonalEdgeStyle;rounded=0;orthogonalLoop=1;jettySize=auto;html=1;fontSize=16;entryX=0.5;entryY=0;entryDx=0;entryDy=0;" parent="1" source="20" target="36" edge="1">
                    <mxGeometry relative="1" as="geometry">
                        <mxPoint x="500" y="500" as="targetPoint"/>
                    </mxGeometry>
                </mxCell>
                <mxCell id="20" value="&lt;font style=&quot;font-size: 16px;&quot;&gt;evennum+1&lt;/font&gt;" style="rounded=1;whiteSpace=wrap;html=1;fontFamily=Times New Roman;fontSize=16;" parent="1" vertex="1">
                    <mxGeometry x="463.5" y="387" width="120" height="60" as="geometry"/>
                </mxCell>
                <mxCell id="24" style="edgeStyle=orthogonalEdgeStyle;rounded=0;orthogonalLoop=1;jettySize=auto;html=1;exitX=0.5;exitY=1;exitDx=0;exitDy=0;fontFamily=Times New Roman;entryX=0.5;entryY=0;entryDx=0;entryDy=0;fontSize=16;" parent="1" source="21" target="6" edge="1">
                    <mxGeometry relative="1" as="geometry">
                        <mxPoint x="330" y="157" as="targetPoint"/>
                    </mxGeometry>
                </mxCell>
                <mxCell id="21" value="&lt;font style=&quot;font-size: 16px;&quot;&gt;设置循环次数&lt;/font&gt;" style="rounded=1;whiteSpace=wrap;html=1;fontFamily=Times New Roman;fontSize=16;" parent="1" vertex="1">
                    <mxGeometry x="390" y="160" width="120" height="60" as="geometry"/>
                </mxCell>
                <mxCell id="42" style="edgeStyle=orthogonalEdgeStyle;rounded=0;orthogonalLoop=1;jettySize=auto;html=1;exitX=0;exitY=0.5;exitDx=0;exitDy=0;entryX=0;entryY=0.5;entryDx=0;entryDy=0;fontSize=16;" parent="1" source="30" target="6" edge="1">
                    <mxGeometry relative="1" as="geometry"/>
                </mxCell>
                <mxCell id="30" value="DI+1" style="rounded=1;whiteSpace=wrap;html=1;fontFamily=Times New Roman;fontSize=16;" parent="1" vertex="1">
                    <mxGeometry x="210" y="540" width="120" height="60" as="geometry"/>
                </mxCell>
                <mxCell id="38" value="是" style="edgeStyle=orthogonalEdgeStyle;rounded=0;orthogonalLoop=1;jettySize=auto;html=1;fontSize=16;" parent="1" source="36" target="39" edge="1">
                    <mxGeometry relative="1" as="geometry">
                        <mxPoint x="450" y="630" as="targetPoint"/>
                    </mxGeometry>
                </mxCell>
                <mxCell id="40" value="否" style="edgeStyle=orthogonalEdgeStyle;rounded=0;orthogonalLoop=1;jettySize=auto;html=1;exitX=0;exitY=0.5;exitDx=0;exitDy=0;entryX=1;entryY=0.5;entryDx=0;entryDy=0;fontSize=16;" parent="1" source="36" target="30" edge="1">
                    <mxGeometry relative="1" as="geometry"/>
                </mxCell>
                <mxCell id="36" value="DI是否到达数组末尾？" style="rounded=1;whiteSpace=wrap;html=1;fontFamily=Times New Roman;" parent="1" vertex="1">
                    <mxGeometry x="390" y="540" width="120" height="60" as="geometry"/>
                </mxCell>
                <mxCell id="39" value="结束程序" style="rounded=1;whiteSpace=wrap;html=1;fontFamily=Times New Roman;" parent="1" vertex="1">
                    <mxGeometry x="390" y="650" width="120" height="60" as="geometry"/>
                </mxCell>
            </root>
        </mxGraphModel>
    </diagram>
</mxfile>